PathFileType	4	(X/Y/Z)	C:/Users/beibeiliu/ov580/test_trc/User3\sequence.24_training_dense_left.trc
DataRate	CameraRate	NumFrames	NumMarkers	Units	OrigDataRate	OrigDataStartFrame	OrigNumFrames
120	120	21	19	mm	120	104	275
Frame#	Time	ThumbCMC			ThumbMCP			ThumbIP			ThumbTip			IndexMCP			IndexPIP			IndexTip			MiddleMCP			MiddlePIP			MiddleTip			RingMCP			RingPIP			RingTip			PinkyMCP			PinkyPIP			PinkyTip			BackHand1			BackHand2			BackHand3	
		X0	Y0	Z0	X1	Y1	Z1	X2	Y2	Z2	X3	Y3	Z3	X4	Y4	Z4	X5	Y5	Z5	X6	Y6	Z6	X7	Y7	Z7	X8	Y8	Z8	X9	Y9	Z9	X10	Y10	Z10	X11	Y11	Z11	X12	Y12	Z12	X13	Y13	Z13	X14	Y14	Z14	X15	Y15	Z15	X16	Y16	Z16	X17	Y17	Z17	X18	Y18	Z18	
103	0.858333	-165.058	25.277	25.5995	-133.581	27.1658	23.3994	-104.258	32.6577	19.5331	-81.2415	33.2702	14.3657	-124.586	15.2815	-35.4306	-95.6051	12.0009	-33.4407	-70.1188	5.70864	-23.4789	-123.777	-9.33785	-34.1972	-97.6707	-13.0458	-11.7148	-110.702	-9.58489	21.0775	-128.872	-25.7844	-23.2149	-111.318	-26.2972	2.19094	-135.269	-15.5259	25.6397	-136.676	-42.2333	-14.437	-122.752	-33.1291	8.76396	-145.177	-21.0586	27.9532	-185.622	-19.9073	-15.845	-205.62	-16.6855	7.06284	-190.225	12.7723	-2.55794	
104	0.866667	-171.556	29.3247	26.0758	-137.103	32.5248	20.9965	-108.764	41.284	17.9295	-85.0919	45.2129	11.9094	-127.91	21.6991	-35.5449	-97.9595	19.0485	-32.4453	-72.0147	14.4244	-22.7138	-125.284	-5.06078	-33.8677	-98.2943	-3.20786	-14.0638	-114.138	-0.153922	24.0311	-125.399	-22.2339	-22.8856	-109.077	-18.8362	-0.31433	-131.66	-7.67252	25.2568	-137.808	-37.4808	-13.5498	-120.372	-27.2081	7.76901	-141.334	-17.6043	28.7663	-186.922	-21.4051	-16.6322	-210.38	-21.4836	9.77541	-193.912	15.5478	-0.386485	
105	0.875	-175.08	31.5506	21.5925	-143.444	38.9115	21.3258	-115.531	45.5347	13.3665	-97.4958	52.7952	13.3487	-132.691	29.0112	-35.4732	-106.156	27.1134	-33.8877	-76.2528	29.0435	-23.546	-127.638	6.43821	-35.0358	-100.519	7.70256	-16.372	-112.774	10.1498	22.638	-131.317	-15.0891	-24.2185	-109.075	-7.99008	1.51389	-133.05	-0.629176	26.5897	-133.361	-33.982	-11.8278	-118.567	-21.9011	8.58202	-139.056	-8.57076	24.8472	-187.038	-16.3224	-15.2042	-209.37	-19.0397	9.45129	-194.795	11.7099	-4.52983	
106	0.883333	-181.064	38.2308	21.6438	-150.337	47.1811	21.3171	-121.699	54.5211	11.268	-100.149	63.0498	6.55781	-134.477	33.138	-37.8095	-108.677	37.2506	-35.4688	-83.5499	38.7155	-25.2301	-126.685	9.75159	-36.0233	-104.046	15.6312	-15.9144	-117.174	14.6342	22.5962	-131.315	-9.07191	-24.6068	-111.427	-4.28606	-0.529348	-132.201	2.05019	24.732	-130.29	-24.2428	-12.9242	-118.956	-16.1159	10.3731	-145.759	-5.64379	27.7395	-185.014	-18.9641	-16.281	-209.154	-21.0652	9.92449	-200.813	15.6589	-3.92984	
107	0.891667	-187.088	37.2382	20.1742	-153.993	50.3786	13.4723	-130.554	59.9577	7.95004	-110.084	71.6091	2.90379	-143.408	38.3064	-39.9586	-114.956	43.3654	-37.9077	-89.1657	46.0641	-27.0968	-129.696	14.5537	-36.6806	-107.294	23.8278	-14.7922	-119.73	22.3027	18.359	-130.431	-4.92139	-24.1185	-112.687	0.798914	-0.7285	-136.446	10.8409	23.5233	-131.417	-20.5905	-14.3254	-120.968	-7.80675	6.53048	-145.362	0.725573	23.4022	-186.413	-19.5372	-17.0965	-208.986	-21.4255	8.80505	-204.887	14.1811	-8.33247	
108	0.9	-193.03	39.1451	17.3908	-161.995	51.4525	10.8061	-138.506	67.3126	3.91004	-120.397	76.5453	0.537621	-148.568	41.5368	-42.7528	-121.142	49.5421	-41.1954	-94.8946	58.7832	-29.4006	-134.346	21.5424	-39.8121	-111.846	30.4424	-15.9231	-127.802	30.2931	18.1771	-129.935	0.7843	-25.1731	-115.959	8.37378	-2.06134	-141.744	14.5187	21.1677	-132.414	-15.8324	-14.3498	-123.298	-1.31261	8.64854	-145.783	6.68688	22.5385	-188.892	-16.1354	-18.5555	-209.664	-20.9904	5.02833	-205.466	12.9177	-9.13196	
109	0.908333	-197.546	38.8072	12.378	-171.557	58.7964	8.09684	-147.779	70.2286	-0.633422	-128.247	82.616	-8.56855	-153.091	41.1962	-45.6553	-131.329	52.9953	-45.2152	-107.624	63.489	-35.8313	-143.839	21.6869	-41.4847	-117.551	36.3245	-21.1507	-130.701	33.0485	12.6774	-135.91	4.96373	-27.8544	-122.45	16.8946	-1.87359	-144.173	17.2875	19.2696	-133.003	-11.9197	-15.4137	-127.554	7.16999	4.09906	-151.032	8.43404	23.0998	-191.475	-18.3782	-15.7917	-212.919	-22.8512	6.59018	-213.414	11.287	-9.06999	
110	0.916667	-207.843	39.2544	12.657	-179.058	60.2987	1.98614	-157.305	72.8419	-8.10471	-139.732	82.5641	-16.5087	-163.319	41.3308	-49.7164	-136.689	54.4299	-49.2452	-117.555	67.4241	-42.4406	-147.74	24.7729	-44.8921	-124.855	38.8431	-24.8477	-142.724	38.3588	12.4094	-142.026	8.5327	-30.7172	-127.3	21.8229	-7.15299	-151.274	20.6524	17.0298	-138.929	-7.26457	-18.1173	-131.303	10.2414	0.79622	-154.45	11.8932	16.9247	-192.838	-20.7595	-15.8265	-212.699	-26.6151	8.22026	-218.57	8.38915	-10.8557	
111	0.925	-213.515	36.3363	8.78618	-190.31	55.8223	2.26926	-170.243	73.4168	-11.0931	-154.567	87.6785	-18.8894	-172.444	40.6736	-53.6382	-148.969	54.717	-55.9646	-125.168	70.1495	-46.6209	-155.65	25.805	-50.0571	-133.47	40.4246	-32.05	-148.542	39.7357	6.1315	-146.343	8.29872	-32.3519	-132.496	23.725	-10.6438	-156.796	23.2611	12.4722	-143.067	-9.75904	-20.0566	-132.716	11.6459	-2.64764	-161.177	12.6543	17.7094	-194.256	-19.25	-20.7314	-214.634	-26.5004	7.3038	-221.263	2.19215	-9.90419	
112	0.933333	-221.51	35.8026	7.10525	-196.49	56.0395	-4.73556	-178.883	72.4473	-17.8054	-164.307	88.9778	-26.9551	-182.483	37.7585	-58.4305	-158.679	57.6812	-62.6869	-134.535	72.5544	-54.6856	-163.045	18.4067	-52.5422	-143.093	43.5853	-41.0202	-154.136	44.9016	-3.17775	-151.606	9.39043	-37.316	-139.102	26.4625	-17.3794	-162.72	26.9239	6.11165	-145.898	-4.4679	-23.9534	-140.058	14.5016	-10.0407	-166.124	14.4297	9.53911	-198.838	-24.0005	-17.4794	-215.415	-28.3164	5.78163	-226.232	-0.773426	-13.9853	
113	0.941667	-224.683	35.2486	1.28179	-204.094	53.1045	-8.70054	-186.152	72.0502	-25.2028	-172.53	86.608	-37.1661	-191.298	32.4369	-62.9134	-166.216	51.9049	-71.1741	-144.573	68.9027	-66.2119	-166.704	17.5825	-58.7267	-150.656	41.198	-48.2164	-162.894	40.434	-6.32226	-158.611	7.95003	-44.0588	-146.71	26.4633	-26.0042	-170.214	24.5099	1.72451	-153.195	-8.73171	-27.9365	-145.337	14.8156	-11.6358	-171.306	12.5911	6.88881	-205.379	-23.1408	-22.4028	-218.237	-32.6592	7.73083	-232.643	-1.87611	-12.166	
114	0.95	-229.05	29.8831	2.27085	-206.008	49.909	-18.362	-190.443	66.0465	-36.438	-177.753	77.5244	-46.376	-200.438	26.5446	-69.8536	-177.189	44.8829	-79.5556	-155.344	57.0828	-78.6882	-180.844	13.6536	-64.5597	-156.521	35.6915	-51.5489	-166.614	41.7385	-18.5254	-163.883	1.33646	-49.9618	-151.861	20.8879	-35.1039	-171.674	23.7201	-7.38993	-162.629	-13.2785	-34.0655	-151.248	11.1032	-23.7696	-171.814	10.7307	0.0454084	-210.328	-27.9822	-18.2824	-219.901	-33.5666	5.82118	-236.745	-7.26173	-12.3321	
115	0.958333	-229.954	27.0261	-2.88885	-210.709	43.457	-19.4603	-195.517	61.2002	-43.7607	-184.38	70.5061	-57.0192	-210.358	19.0601	-73.5941	-186.792	36.0769	-88.4861	-167.736	50.2334	-90.6933	-186.436	3.88859	-69.1727	-162.69	26.6189	-58.622	-172.728	34.736	-26.0808	-177.84	-5.90234	-54.5589	-158.856	17.4556	-38.698	-178.873	18.5816	-14.7434	-165.888	-17.6501	-40.5089	-154.948	3.77055	-27.7599	-178.735	8.33057	-7.23668	-215.503	-31.8981	-21.2122	-227.386	-33.6102	6.85345	-243.069	-4.88568	-14.2955	
116	0.966667	-232.959	26.5154	-2.26006	-212.128	40.3296	-29.1548	-200.374	54.0308	-48.0363	-188.112	60.4551	-67.6135	-217.851	10.987	-75.0231	-198.286	22.189	-92.4113	-175.204	38.4951	-100.361	-197.337	-4.6995	-71.8403	-172.389	20.4823	-67.9541	-177.862	24.484	-29.8731	-184.898	-14.7521	-57.7455	-165.854	9.21079	-46.4407	-182.317	10.9244	-18.2744	-175.776	-22.9643	-44.7146	-160.44	-3.57437	-34.2292	-179.74	2.11325	-9.18417	-226.517	-33.8999	-22.132	-231.437	-37.6379	9.13788	-249.319	-7.79833	-10.8516	
117	0.975	-233.7	26.6465	-3.89665	-215.233	39.6423	-32.2843	-203.838	47.0236	-52.8723	-192.647	52.4005	-72.0106	-224.438	3.77405	-78.4987	-206.722	16.621	-97.4026	-183.411	27.0732	-107.492	-206.373	-12.1154	-73.2444	-179.179	7.10263	-71.9406	-181.835	16.4704	-35.4367	-194.557	-19.1332	-60.9198	-173.024	-0.866755	-54.5489	-188.158	4.61201	-22.4303	-183.709	-33.9515	-44.4642	-168.126	-10.7955	-37.4095	-186.414	-2.74524	-12.832	-231.282	-37.4838	-21.5369	-237.194	-32.6158	13.9554	-250.032	-11.2817	-10.4362	
118	0.983333	-232.752	21.9275	-6.2604	-216.136	33.3932	-35.3091	-205.12	38.2581	-58.7952	-194.308	48.5844	-77.6158	-233.38	0.768736	-78.6517	-214.062	9.2376	-99.8401	-192.732	15.5873	-111.196	-214.943	-15.8711	-73.7489	-187.407	2.31184	-75.5722	-187.576	11.3184	-36.0651	-197.329	-27.9804	-62.3601	-176.608	-10.9352	-54.1304	-192.514	-1.2062	-21.9007	-191.495	-40.1841	-46.081	-173.107	-19.9182	-41.35	-189.969	-7.83013	-16.3637	-237.455	-41.8181	-16.043	-239.698	-36.12	16.1597	-254.372	-7.24912	-5.65878	
119	0.991667	-231.387	20.5706	-7.27169	-216.054	32.1226	-36.4023	-204.821	36.459	-62.5502	-193.384	38.8877	-81.7459	-239.306	-0.101271	-75.5788	-221.757	4.65484	-98.5114	-197.795	9.17714	-114.563	-218.822	-21.7729	-75.0118	-188.272	-4.44642	-73.3939	-190.378	5.51819	-34.1312	-206.05	-32.8632	-62.9145	-182.36	-14.4313	-55.0357	-192.395	-6.97775	-23.8539	-199.144	-44.5754	-48.1583	-179.327	-26.3012	-41.4271	-195.579	-13.8567	-17.8638	-244.41	-42.9717	-18.4169	-243.065	-37.8213	14.9472	-256.112	-9.77992	-3.65018	
120	1	-228.419	23.8443	-5.185	-212.4	26.7082	-32.0945	-200.869	29.8401	-60.8679	-191.472	32.4584	-78.2668	-239.869	-1.68148	-78.3113	-224.042	1.10534	-97.6397	-203.617	5.29625	-115.677	-225.686	-24.0264	-71.9848	-192.653	-10.3683	-74.527	-189.891	-2.10865	-38.6348	-216.51	-34.8024	-60.5872	-187.047	-23.2034	-56.8094	-195.738	-12.6515	-21.9551	-206.362	-46.0469	-50.0092	-185.794	-29.1378	-42.552	-192.522	-20.4077	-18.3433	-249.178	-40.6275	-12.99	-245.948	-35.5457	17.0453	-256.9	-2.99614	-7.18987	
121	1.00833	-222.234	24.8096	-5.96366	-206.07	26.5445	-31.2807	-196.551	28.9993	-60.7219	-186.869	29.8177	-84.4995	-240.191	-0.11394	-76.6326	-225.366	1.2318	-98.2229	-201.783	-1.03592	-117.661	-226.132	-21.9741	-75.3562	-197.385	-13.3741	-78.3096	-188.248	-8.90361	-39.9461	-218.822	-38.79	-60.1787	-189.584	-31.4574	-54.4215	-195.708	-18.936	-23.3712	-214.792	-51.8003	-48.6354	-188.977	-39.4217	-43.4522	-195.53	-27.8136	-16.6577	-253.266	-34.607	-16.4332	-248.702	-31.8924	19.0053	-255.616	0.558452	-3.08303	
122	1.01667	-215.691	19.4721	-2.09305	-201.282	23.2302	-32.7488	-189.028	28.2359	-62.5	-181.507	26.7337	-82.7777	-239.062	6.12464	-77.5976	-225.534	5.80385	-97.5289	-205.713	4.06828	-115.96	-230.322	-19.0479	-75.0063	-197.484	-16.8257	-77.7203	-188.939	-9.66602	-38.5441	-222.036	-37.3671	-62.9067	-192.534	-35.0204	-55.2035	-196.367	-24.3067	-24.956	-217.656	-51.3097	-52.4691	-194.894	-42.8827	-44.6823	-200.984	-28.6624	-18.5486	-256.826	-31.8478	-17.3074	-253.024	-27.8715	18.2534	-250.701	6.84599	-2.36972	
123	1.025	-208.075	21.939	-4.52892	-193.474	22.3459	-34.3304	-183.659	22.2039	-61.0065	-172.298	22.4972	-79.1048	-234.764	14.2391	-74.1256	-221.145	7.96965	-101.215	-199.024	2.73092	-119.073	-229.881	-13.6032	-75.3057	-198.152	-22.3134	-77.6165	-187.266	-15.5255	-40.5678	-228.081	-31.2252	-62.2422	-196.323	-37.5321	-56.4154	-199.169	-24.9794	-24.7204	-227.47	-48.1885	-50.8869	-199.614	-43.6541	-44.9361	-201.483	-36.2243	-16.8728	-257.375	-25.0095	-13.0495	-252.598	-21.1355	14.9964	-246.807	7.43976	0.634151	
